<?xml version="1.0" standalone="no"?>
<!DOCTYPE svg PUBLIC "-//W3C//DTD SVG 20010904//EN"
 "http://www.w3.org/TR/2001/REC-SVG-20010904/DTD/svg10.dtd">
<svg version="1.0" xmlns="http://www.w3.org/2000/svg"
 width="600.000000pt" height="600.000000pt" viewBox="0 0 600.000000 600.000000"
 preserveAspectRatio="xMidYMid meet">
<g transform="translate(0.000000,600.000000) scale(0.100000,-0.100000)"
fill="#000000" stroke="none">
<path d="M1562 3260 c-61 -7 -145 -38 -187 -70 -89 -67 -175 -199 -175 -268 0
-17 -4 -34 -10 -37 -5 -3 -10 -28 -10 -55 0 -27 5 -52 10 -55 6 -3 10 -18 10
-33 0 -96 112 -249 217 -296 23 -10 44 -25 47 -32 9 -24 -4 -43 -32 -46 -30
-3 -53 -39 -45 -69 3 -11 21 -28 41 -38 l35 -18 -2 -99 c-2 -106 4 -124 63
-177 19 -17 19 -17 -2 -40 -29 -31 -28 -58 3 -87 21 -20 25 -33 25 -80 0 -47
-4 -62 -25 -84 -29 -31 -31 -48 -10 -66 22 -18 19 -35 -10 -56 -33 -25 -32
-41 7 -81 30 -31 31 -34 15 -51 -9 -10 -17 -27 -17 -37 0 -19 124 -145 142
-145 6 0 37 26 69 58 l59 57 0 445 0 445 32 16 c40 19 53 39 44 72 -4 18 -17
30 -41 38 -51 19 -45 42 22 79 70 40 141 112 172 176 12 27 28 58 33 69 20 36
22 186 4 248 -32 110 -100 202 -190 256 -97 58 -176 74 -294 61z m239 -63
c124 -60 193 -151 225 -297 36 -162 -61 -360 -211 -434 l-56 -27 3 -47 c2 -39
6 -47 23 -48 48 -2 55 -5 55 -24 0 -21 -27 -40 -59 -40 -21 0 -21 -2 -21 -451
l0 -451 -54 -56 -54 -56 -56 55 c-61 59 -68 78 -33 102 l22 16 -37 36 c-21 19
-38 40 -38 45 0 6 11 20 25 32 31 26 31 35 4 64 l-22 23 32 26 c29 25 31 31
31 93 0 60 -3 69 -30 97 -30 31 -30 31 -10 50 29 26 25 58 -12 94 -32 32 -33
32 -38 153 l-5 122 -33 8 c-51 14 -55 59 -5 63 33 2 43 16 43 55 0 38 -2 41
-55 66 -84 41 -195 168 -195 224 0 10 -4 22 -10 25 -6 4 -10 53 -10 115 0 62
4 111 10 115 6 3 10 15 10 26 0 29 65 123 114 165 86 75 170 104 286 101 75
-3 94 -8 161 -40z"/>
<path d="M1595 3117 c-11 -12 -53 -51 -94 -87 -41 -36 -83 -75 -95 -88 -11
-13 -35 -32 -53 -43 -50 -31 -44 -49 12 -36 26 6 45 16 45 24 0 8 18 31 40 53
22 22 40 37 40 34 0 -3 15 11 34 30 45 48 109 91 114 77 2 -6 8 -11 12 -11 5
0 32 -22 60 -49 28 -27 69 -65 91 -83 21 -18 39 -40 39 -48 0 -14 77 -47 86
-37 9 8 -8 36 -24 42 -10 3 -37 24 -62 48 -90 84 -217 197 -221 197 -2 0 -13
-10 -24 -23z"/>
<path d="M1817 2863 c-4 -3 -7 -53 -7 -109 0 -99 -1 -104 -22 -109 -13 -3 -33
-4 -45 -3 -21 2 -23 7 -23 70 0 57 -4 71 -24 92 -19 21 -33 26 -73 26 -70 0
-93 -26 -93 -106 0 -64 -11 -84 -46 -84 -42 0 -50 20 -49 124 0 70 -3 96 -12
96 -10 0 -13 -27 -13 -102 0 -57 -3 -113 -6 -125 -6 -23 -5 -23 76 -23 l83 0
-6 95 -5 95 70 0 69 0 -2 -97 c-1 -54 1 -97 5 -95 3 1 38 2 76 2 l70 0 0 118
c0 110 -7 151 -23 135z"/>
<path d="M1646 2433 c-3 -3 -6 -253 -6 -555 0 -480 2 -548 15 -548 13 0 15 68
15 549 0 303 -4 552 -9 555 -4 3 -11 3 -15 -1z"/>
<path d="M1895 2380 c-5 -9 -6 -1430 -2 -1437 3 -5 71 -7 151 -5 l146 3 0 143
c0 108 -4 151 -15 172 -8 16 -15 27 -16 24 -1 -3 -3 -68 -5 -145 -2 -77 -6
-146 -9 -153 -3 -9 -32 -12 -112 -10 l-108 3 -3 679 c-2 537 0 681 10 688 14
9 188 11 210 3 12 -5 14 -69 11 -403 -3 -387 2 -451 27 -412 6 9 10 175 10
432 l0 417 -146 3 c-80 2 -147 1 -149 -2z"/>
<path d="M3907 1663 l3 -718 145 -3 145 -3 0 259 c0 285 2 297 62 347 47 40
83 55 125 52 53 -3 105 -38 131 -87 21 -40 22 -53 22 -306 l0 -264 148 0 147
0 -6 327 c-6 376 -4 367 -91 453 -38 37 -92 67 -159 89 -42 13 -192 15 -217 2
-9 -5 -30 -15 -46 -22 -40 -19 -96 -72 -96 -92 0 -13 5 -11 26 8 14 13 35 27
45 30 11 4 19 11 19 16 0 5 6 9 14 9 7 0 27 7 42 15 33 17 141 20 188 5 17 -5
43 -12 58 -15 15 -3 33 -12 42 -20 8 -8 18 -15 21 -15 10 0 68 -50 58 -50 -4
0 0 -5 10 -11 44 -26 50 -68 54 -379 2 -162 0 -301 -5 -307 -9 -15 -199 -20
-212 -7 -5 5 -11 124 -14 264 -6 282 -7 291 -18 284 -4 -3 -8 0 -8 6 0 15 -29
44 -70 69 -25 15 -52 21 -92 21 -77 0 -121 -25 -191 -110 -8 -10 -13 -88 -15
-270 -2 -140 -7 -259 -12 -263 -9 -10 -192 -13 -207 -4 -16 10 -12 1352 4
1368 12 12 184 15 203 4 5 -3 9 -143 10 -316 0 -299 6 -359 31 -344 5 4 7 11
3 16 -3 5 -5 160 -4 344 l1 335 -148 0 -148 0 2 -717z"/>
<path d="M3240 1861 c-8 -5 -31 -15 -50 -22 -46 -17 -134 -106 -157 -158 -10
-23 -21 -41 -25 -41 -5 0 -8 -9 -8 -20 0 -11 7 -20 15 -20 8 0 17 0 20 0 2 -1
31 -16 64 -34 67 -38 67 -38 106 39 24 48 70 93 102 101 36 9 94 -3 112 -23
29 -31 51 -85 51 -125 0 -21 5 -38 10 -38 15 0 12 81 -3 110 -33 63 -96 107
-140 97 -12 -3 -32 -8 -44 -11 -37 -8 -70 -38 -100 -91 -24 -41 -34 -50 -54
-48 -34 4 -97 33 -103 48 -7 19 52 106 103 152 68 62 113 76 226 70 81 -3 109
-9 150 -30 72 -36 127 -104 139 -172 4 -22 13 -43 19 -47 7 -4 7 -11 -2 -22
-10 -12 -10 -19 3 -38 16 -22 16 -22 16 19 0 23 -4 45 -10 48 -5 3 -10 23 -10
43 0 21 -9 48 -20 62 -11 14 -20 30 -20 36 0 12 -54 64 -90 86 -14 8 -41 18
-60 23 -54 11 -223 16 -240 6z"/>
<path d="M2425 1736 c-33 -35 -100 -105 -149 -155 -83 -87 -102 -115 -59 -93
10 6 53 46 96 90 42 44 77 78 77 77 0 -1 26 23 58 54 l57 56 129 0 c80 0 131
-4 133 -10 4 -12 -242 -265 -257 -265 -6 0 -10 -4 -10 -10 0 -5 -9 -19 -19
-29 -28 -28 -39 -53 -32 -77 7 -23 52 -84 63 -84 12 0 128 -125 128 -138 0 -7
4 -11 9 -8 5 4 24 -10 43 -30 18 -20 52 -55 76 -79 23 -24 42 -48 42 -54 0 -6
-19 -11 -42 -12 -103 -2 -200 2 -221 10 -12 5 -54 42 -94 82 -39 41 -80 81
-90 90 -10 9 -39 39 -65 67 -51 55 -77 72 -105 71 -14 0 -15 -2 -3 -7 8 -4 87
-82 175 -173 l160 -166 188 -4 c104 -2 190 -3 192 -1 1 2 -98 103 -221 226
l-224 223 206 207 206 206 -194 -1 -193 0 -60 -63z"/>
<path d="M3642 1460 c-13 -33 -28 -60 -33 -60 -5 0 -9 -7 -9 -15 0 -15 -156
-177 -200 -208 -13 -9 -21 -20 -17 -23 11 -11 59 26 148 118 83 84 119 137
119 173 0 9 5 13 10 10 6 -4 10 8 10 29 0 20 -1 36 -3 36 -1 0 -13 -27 -25
-60z"/>
<path d="M3436 1458 c-15 -29 -39 -67 -54 -84 -29 -33 -93 -110 -102 -122 -8
-10 -189 -181 -236 -223 -23 -20 -44 -48 -48 -63 l-6 -26 358 0 359 0 0 65
c-1 73 -22 87 -23 16 0 -23 -5 -46 -11 -52 -15 -15 -635 -8 -640 8 -2 6 13 26
34 45 21 18 64 59 97 91 32 31 63 57 67 57 5 0 9 4 9 9 0 5 19 29 43 54 81 84
119 128 140 165 11 20 24 39 27 42 17 16 31 53 22 62 -6 6 -19 -11 -36 -44z"/>
<path d="M3415 1110 c-7 -11 4 -12 150 -14 50 -1 102 -6 118 -10 23 -7 27 -5
27 13 0 20 -4 21 -144 21 -86 0 -147 -4 -151 -10z"/>
</g>
</svg>
